<?xml version="1.0" encoding="UTF-8" standalone="no"?>
<svg
   xmlns:dc="http://purl.org/dc/elements/1.1/"
   xmlns:cc="http://creativecommons.org/ns#"
   xmlns:rdf="http://www.w3.org/1999/02/22-rdf-syntax-ns#"
   xmlns:svg="http://www.w3.org/2000/svg"
   xmlns="http://www.w3.org/2000/svg"
   version="1.1"
   id="svg4170"
   viewBox="0 0 602.25434 94.30215"
   height="26.614162mm"
   width="169.96956mm">
  <defs
     id="defs4172" />
  <metadata
     id="metadata4175">
    <rdf:RDF>
      <cc:Work
         rdf:about="">
        <dc:format>image/svg+xml</dc:format>
        <dc:type
           rdf:resource="http://purl.org/dc/dcmitype/StillImage" />
        <dc:title></dc:title>
      </cc:Work>
    </rdf:RDF>
  </metadata>
  <g
     transform="translate(-63.98816,-483.85435)"
     id="layer1">
    <g
       id="layer1-8"
       transform="matrix(0.67987825,0,0,0.67987825,73.704242,173.51501)">
      <g
         id="g3701"
         transform="matrix(5.1539048,0,0,5.1539048,-694.56955,-721.08885)">
        <g
           id="g3009"
           transform="matrix(1.25,0,0,-1.25,131.99286,228.47763)">
          <path
             style="fill:#ed1c24;fill-opacity:1;fill-rule:nonzero;stroke:none"
             id="path3011"
             d="M 0,0 44.242,0 41.63,-1.359 41.625,-10.514 37.24,-18.708 38.912,-21.53 0,0" />
        </g>
        <g
           id="g3013"
           transform="matrix(1.25,0,0,-1.25,264.91661,232.58138)">
          <path
             style="fill:#231f20;fill-opacity:1;fill-rule:nonzero;stroke:none"
             id="path3015"
             d="m 0,0 -0.052,0 -2.388,-4.427 4.743,0 L 0,0 m -3.835,-6.994 -1.047,-2.368 -5.371,0 6.476,12.606 7.228,0 6.649,-12.606 -5.399,0 -1.029,2.368 -7.507,0" />
        </g>
        <g
           id="g3017"
           transform="matrix(1.25,0,0,-1.25,222.43786,232.58138)">
          <path
             style="fill:#231f20;fill-opacity:1;fill-rule:nonzero;stroke:none"
             id="path3019"
             d="m 0,0 -0.052,0 -2.388,-4.427 4.743,0 L 0,0 m -3.835,-6.994 -1.047,-2.368 -5.373,0 6.476,12.606 7.229,0 6.649,-12.606 -5.399,0 -1.029,2.368 -7.506,0" />
        </g>
        <g
           id="g3021"
           transform="matrix(1.25,0,0,-1.25,289.61286,228.52763)">
          <path
             style="fill:#231f20;fill-opacity:1;fill-rule:nonzero;stroke:none"
             id="path3023"
             d="m 0,0 4.875,0 -5.069,-5.185 6.323,-7.421 -5.226,0 -6.589,7.407 -0.04,-1.94 0,-5.467 -3.931,0 0,12.606 3.931,0 0,-5.199 0.04,0 L 0,0" />
        </g>
        <path
           style="fill:#231f20;fill-opacity:1;fill-rule:nonzero;stroke:none"
           id="path3025"
           d="m 298.87786,244.28513 4.98988,0 0,-15.75875 -4.98988,0 0,15.75875 z" />
        <g
           id="g3027"
           transform="matrix(1.25,0,0,-1.25,251.76661,232.15013)">
          <path
             style="fill:#231f20;fill-opacity:1;fill-rule:nonzero;stroke:none"
             id="path3029"
             d="m 0,0 0,2.898 -13.324,0 0,-2.657 7.368,0 -7.298,-6.948 0,-3.001 13.351,0 0,2.538 -7.25,0 L 0,0" />
        </g>
        <g
           id="g3031"
           transform="matrix(1.25,0,0,-1.25,213.63286,228.47763)">
          <path
             style="fill:#231f20;fill-opacity:1;fill-rule:nonzero;stroke:none"
             id="path3033"
             d="m 0,0 -5.104,0 -3.35,-4.442 -3.348,4.442 -5.103,0 6.427,-8.514 0,-4.132 3.954,0 0,4.132 L 0,0" />
        </g>
      </g>
    </g>
  </g>
</svg>
